<?xml version="1.0" encoding="utf-8"?>
<!-- Generator: Adobe Illustrator 23.0.3, SVG Export Plug-In . SVG Version: 6.00 Build 0)  -->
<svg version="1.1" id="Layer_1" xmlns="http://www.w3.org/2000/svg" xmlns:xlink="http://www.w3.org/1999/xlink" x="0px" y="0px"
	 viewBox="0 0 792 612" style="enable-background:new 0 0 792 612;" xml:space="preserve">
<style type="text/css">
	.st0{fill:none;}
	.st1{font-family:'JuliusSansOne-Regular';}
	.st2{font-size:75.8698px;}
	.st3{fill:none;stroke:#000000;stroke-miterlimit:10;}
	.st4{fill:#696969;}
	.st5{font-family:'Thasadith-Regular';}
	.st6{font-size:74.0193px;}
	.st7{fill:#696969;stroke:#696969;stroke-miterlimit:10;}
</style>
<g>
	<rect x="115.3" y="228.5" class="st0" width="325.6" height="84.2"/>
	<text transform="matrix(1 0 0 1 115.3083 293.5821)" class="st1 st2">HONEST</text>
	<text transform="matrix(1 0 0 1 115.3083 293.5821)" class="st3 st1 st2">HONEST</text>
	<rect x="458.9" y="301.2" class="st0" width="213.3" height="97.3"/>
	<text transform="matrix(1 0 0 1 459.6481 364.1251)" class="st4 st5 st6">Homes</text>
	<g>
		<polygon class="st7" points="562,253 456,303 125.2,303 125.2,304.4 458.5,304.4 562,255.6 665.5,304.4 676.7,304.4 676.7,303 
			668,303 		"/>
		<polygon class="st4" points="125.2,304.4 458.5,304.4 562,255.6 665.5,304.4 676.7,304.4 676.7,303 668,303 562,253 456,303 
			125.2,303 		"/>
	</g>
</g>
</svg>
